# xmcd
#
# Track frame offsets:
#	150
#	18121
#	34228
#	55869
#	72666
#	93086
#	113778
#	129639
#	147531
#	162451
#	178663
#	194369
#	210078
#	226063
#	241120
#	254779
#
# Disc length: 3653 seconds
#
# Revision: 0
# Processed by: cddbd v1.5.2PL0 Copyright (c) Steve Scherf et al.
# Submitted via: EasyCDDAExtractor 11.5.0.1
#
DISCID=df0e4310
DTITLE=Marco Antonio Solís y Los Bukis - ëxitos
DYEAR=1900
DGENRE=texmex
TTITLE0=Como me haces falta
TTITLE1=Tu cárcel
TTITLE2=Tus mentiras
TTITLE3=Que lástima
TTITLE4=Como fui a enamorarme de tí
TTITLE5=Si me recuerdas
TTITLE6=A donde vayas
TTITLE7=Necesito una compañera
TTITLE8=Este adios
TTITLE9=Necesita de tí
TTITLE10=Presiento que voy allorar
TTITLE11=Mi fantasía
TTITLE12=Me volví a acordar de tí
TTITLE13=Que mala
TTITLE14=Yo te necesito
TTITLE15=Navidad sin tí
EXTD=
EXTT0=
EXTT1=
EXTT2=
EXTT3=
EXTT4=
EXTT5=
EXTT6=
EXTT7=
EXTT8=
EXTT9=
EXTT10=
EXTT11=
EXTT12=
EXTT13=
EXTT14=
EXTT15=
PLAYORDER=
